<svg width="61" height="61" viewBox="0 0 61 61" fill="none" xmlns="http://www.w3.org/2000/svg">
<path d="M26.2333 13.875L16.5424 2.68878C15.4252 1.39971 13.3771 1.40544 12.0794 2.70596L4.11014 10.6896C1.73826 13.0643 1.05936 16.5906 2.43149 19.4179C10.6288 36.3905 24.317 50.0979 41.2781 58.319C44.1026 59.6911 47.626 59.0122 49.9979 56.6375L58.0417 48.5794C59.345 47.276 59.3479 45.2164 58.0474 44.0992L46.8182 34.4599C45.6437 33.4515 43.819 33.5833 42.6416 34.7635L38.7344 38.6765C38.5343 38.8862 38.271 39.0244 37.9848 39.0699C37.6987 39.1155 37.4055 39.0658 37.1502 38.9286C30.7635 35.2508 25.4656 29.9459 21.7961 23.5544C21.6587 23.2987 21.6089 23.0051 21.6544 22.7184C21.7 22.4317 21.8383 22.1679 22.0482 21.9674L25.944 18.0687C27.1242 16.8828 27.2531 15.0495 26.2333 13.8721V13.875Z" stroke="#457B9D" stroke-width="2.55814" stroke-linecap="round" stroke-linejoin="round"/>
</svg>
